<svg xmlns="http://www.w3.org/2000/svg" xmlns:xlink="http://www.w3.org/1999/xlink" width="295pt" height="212pt" viewBox="0 0 295 212"><g id="graph0" class="graph" transform="scale(1 1) rotate(0) translate(4 208)"><polygon fill="#fff" stroke="transparent" points="-4 4 -4 -208 291 -208 291 4 -4 4"/><g id="node1" class="node"><title>0</title><polygon fill="#fae6d7" stroke="#000" stroke-width="1.2" points="187 -204 37 -204 37 -168 187 -168 187 -204"/><text x="112" y="-183.2" font-family="trebuchet" font-size="11" text-anchor="middle">empty_server_form_handler</text></g><g id="node2" class="node"><title>1</title><polygon fill="#68b4eb" stroke="#000" stroke-width="1.2" points="108 -132 0 -132 0 -84 108 -84 108 -132"/><text x="54" y="-123.2" font-family="trebuchet" font-size="11" text-anchor="middle">Class True:</text><text x="54" y="-111.2" font-family="trebuchet" font-size="11" text-anchor="middle">P(False) = 0.1</text><text x="54" y="-99.2" font-family="trebuchet" font-size="11" text-anchor="middle">P(True) = 0.9</text><text x="54" y="-87.2" font-family="trebuchet" font-size="11" text-anchor="middle">samples: 503</text></g><g id="edge1" class="edge"><title>0-&gt;1</title><path fill="none" stroke="#000" stroke-width=".6" d="M72.5,-167.91C72.5,-167.91 72.5,-142.2 72.5,-142.2"/><polygon fill="#000" stroke="#000" stroke-width=".6" points="76 -142.2 72.5 -132.2 69 -142.2 76 -142.2"/><text x="59.5" y="-157.45" font-family="Times,serif" font-size="7" text-anchor="middle">≤ 0.5455</text></g><g id="node3" class="node"><title>2</title><polygon fill="#eda775" stroke="#000" stroke-width="1.2" points="213.5 -126 126.5 -126 126.5 -90 213.5 -90 213.5 -126"/><text x="170" y="-105.2" font-family="trebuchet" font-size="11" text-anchor="middle">popup_window</text></g><g id="edge2" class="edge"><title>0-&gt;2</title><path fill="none" stroke="#000" stroke-width=".6" d="M156.75,-167.91C156.75,-167.91 156.75,-136.26 156.75,-136.26"/><polygon fill="#000" stroke="#000" stroke-width=".6" points="160.25 -136.26 156.75 -126.26 153.25 -136.26 160.25 -136.26"/><text x="143.75" y="-154.49" font-family="Times,serif" font-size="7" text-anchor="middle">&gt; 0.5455</text></g><g id="node4" class="node"><title>3</title><polygon fill="#fafdfe" stroke="#000" stroke-width="1.2" points="161 -48 53 -48 53 0 161 0 161 -48"/><text x="107" y="-39.2" font-family="trebuchet" font-size="11" text-anchor="middle">Class True:</text><text x="107" y="-27.2" font-family="trebuchet" font-size="11" text-anchor="middle">P(False) = 0.5</text><text x="107" y="-15.2" font-family="trebuchet" font-size="11" text-anchor="middle">P(True) = 0.5</text><text x="107" y="-3.2" font-family="trebuchet" font-size="11" text-anchor="middle">samples: 64</text></g><g id="edge3" class="edge"><title>2-&gt;3</title><path fill="none" stroke="#000" stroke-width=".6" d="M143.75,-89.77C143.75,-89.77 143.75,-58.25 143.75,-58.25"/><polygon fill="#000" stroke="#000" stroke-width=".6" points="147.25 -58.25 143.75 -48.25 140.25 -58.25 147.25 -58.25"/><text x="130.75" y="-76.41" font-family="Times,serif" font-size="7" text-anchor="middle">≤ 0.0909</text></g><g id="node5" class="node"><title>4</title><polygon fill="#e68742" stroke="#000" stroke-width="1.2" points="287 -48 179 -48 179 0 287 0 287 -48"/><text x="233" y="-39.2" font-family="trebuchet" font-size="11" text-anchor="middle">Class False:</text><text x="233" y="-27.2" font-family="trebuchet" font-size="11" text-anchor="middle">P(False) = 1.0</text><text x="233" y="-15.2" font-family="trebuchet" font-size="11" text-anchor="middle">P(True) = 0.0</text><text x="233" y="-3.2" font-family="trebuchet" font-size="11" text-anchor="middle">samples: 256</text></g><g id="edge4" class="edge"><title>2-&gt;4</title><path fill="none" stroke="#000" stroke-width=".6" d="M196.25,-89.77C196.25,-89.77 196.25,-58.25 196.25,-58.25"/><polygon fill="#000" stroke="#000" stroke-width=".6" points="199.75 -58.25 196.25 -48.25 192.75 -58.25 199.75 -58.25"/><text x="183.25" y="-76.41" font-family="Times,serif" font-size="7" text-anchor="middle">&gt; 0.0909</text></g></g></svg>