<svg xmlns="http://www.w3.org/2000/svg" xmlns:xlink="http://www.w3.org/1999/xlink" width="232" height="332pt" viewBox="0 0 174.39 332"><g id="graph0" class="graph" transform="scale(1 1) rotate(0) translate(4 328)"><title>%3</title><polygon fill="#fff" stroke="transparent" points="-4 4 -4 -328 170.385 -328 170.385 4 -4 4"/><g id="node1" class="node"><title>x</title><ellipse cx="83.193" cy="-306" fill="none" stroke="#000" rx="27" ry="18"/><text x="83.193" y="-302.3" fill="#000" font-family="Times,serif" font-size="14" text-anchor="middle">x</text></g><g id="node2" class="node"><title>StandardScaler</title><ellipse cx="83.193" cy="-234" fill="none" stroke="#000" rx="63.889" ry="18"/><text x="83.193" y="-230.3" fill="#000" font-family="Times,serif" font-size="14" text-anchor="middle">StandardScaler</text></g><g id="edge1" class="edge"><title>x-&gt;StandardScaler</title><path fill="none" stroke="#000" d="M83.1926,-287.8314C83.1926,-280.131 83.1926,-270.9743 83.1926,-262.4166"/><polygon fill="#000" stroke="#000" points="86.693 -262.413 83.193 -252.413 79.693 -262.413 86.693 -262.413"/></g><g id="node3" class="node"><title>PolynomialExtender</title><ellipse cx="83.193" cy="-162" fill="none" stroke="#000" rx="83.386" ry="18"/><text x="83.193" y="-158.3" fill="#000" font-family="Times,serif" font-size="14" text-anchor="middle">PolynomialExtender</text></g><g id="edge2" class="edge"><title>StandardScaler-&gt;PolynomialExtender</title><path fill="none" stroke="#000" d="M83.1926,-215.8314C83.1926,-208.131 83.1926,-198.9743 83.1926,-190.4166"/><polygon fill="#000" stroke="#000" points="86.693 -190.413 83.193 -180.413 79.693 -190.413 86.693 -190.413"/></g><g id="node4" class="node"><title>LinearRegression</title><ellipse cx="83.193" cy="-90" fill="none" stroke="#000" rx="72.588" ry="18"/><text x="83.193" y="-86.3" fill="#000" font-family="Times,serif" font-size="14" text-anchor="middle">LinearRegression</text></g><g id="edge3" class="edge"><title>PolynomialExtender-&gt;LinearRegression</title><path fill="none" stroke="#000" d="M83.1926,-143.8314C83.1926,-136.131 83.1926,-126.9743 83.1926,-118.4166"/><polygon fill="#000" stroke="#000" points="86.693 -118.413 83.193 -108.413 79.693 -118.413 86.693 -118.413"/></g><g id="node5" class="node"><title>y</title><ellipse cx="83.193" cy="-18" fill="none" stroke="#000" rx="27" ry="18"/><text x="83.193" y="-14.3" fill="#000" font-family="Times,serif" font-size="14" text-anchor="middle">y</text></g><g id="edge4" class="edge"><title>LinearRegression-&gt;y</title><path fill="none" stroke="#000" d="M83.1926,-71.8314C83.1926,-64.131 83.1926,-54.9743 83.1926,-46.4166"/><polygon fill="#000" stroke="#000" points="86.693 -46.413 83.193 -36.413 79.693 -46.413 86.693 -46.413"/></g></g></svg>