<svg xmlns="http://www.w3.org/2000/svg" xmlns:xlink="http://www.w3.org/1999/xlink" width="408" height="332pt" viewBox="0 0 306.39 332"><g id="graph0" class="graph" transform="scale(1 1) rotate(0) translate(4 328)"><title>%3</title><polygon fill="#fff" stroke="transparent" points="-4 4 -4 -328 302.387 -328 302.387 4 -4 4"/><g id="node1" class="node"><title>x</title><ellipse cx="162.193" cy="-306" fill="none" stroke="#000" rx="27" ry="18"/><text x="162.193" y="-302.3" fill="#000" font-family="Times,serif" font-size="14" text-anchor="middle">x</text></g><g id="node2" class="node"><title>StandardScaler</title><ellipse cx="162.193" cy="-234" fill="none" stroke="#000" rx="63.889" ry="18"/><text x="162.193" y="-230.3" fill="#000" font-family="Times,serif" font-size="14" text-anchor="middle">StandardScaler</text></g><g id="edge1" class="edge"><title>x-&gt;StandardScaler</title><path fill="none" stroke="#000" d="M162.1926,-287.8314C162.1926,-280.131 162.1926,-270.9743 162.1926,-262.4166"/><polygon fill="#000" stroke="#000" points="165.693 -262.413 162.193 -252.413 158.693 -262.413 165.693 -262.413"/></g><g id="node3" class="node"><title>PolynomialExtender</title><ellipse cx="83.193" cy="-162" fill="none" stroke="#000" rx="83.386" ry="18"/><text x="83.193" y="-158.3" fill="#000" font-family="Times,serif" font-size="14" text-anchor="middle">PolynomialExtender</text></g><g id="edge2" class="edge"><title>StandardScaler-&gt;PolynomialExtender</title><path fill="none" stroke="#000" d="M143.0689,-216.5708C133.1476,-207.5286 120.8645,-196.3338 110.0106,-186.4417"/><polygon fill="#000" stroke="#000" points="112.163 -183.667 102.414 -179.518 107.447 -188.841 112.163 -183.667"/></g><g id="node4" class="node"><title>RBFSampler</title><ellipse cx="241.193" cy="-162" fill="none" stroke="#000" rx="57.391" ry="18"/><text x="241.193" y="-158.3" fill="#000" font-family="Times,serif" font-size="14" text-anchor="middle">RBFSampler</text></g><g id="edge3" class="edge"><title>StandardScaler-&gt;RBFSampler</title><path fill="none" stroke="#000" d="M181.3163,-216.5708C191.3846,-207.3946 203.8852,-196.0017 214.8561,-186.0029"/><polygon fill="#000" stroke="#000" points="217.484 -188.343 222.518 -179.02 212.769 -183.169 217.484 -188.343"/></g><g id="node5" class="node"><title>LinearRegression</title><ellipse cx="162.193" cy="-90" fill="none" stroke="#000" rx="72.588" ry="18"/><text x="162.193" y="-86.3" fill="#000" font-family="Times,serif" font-size="14" text-anchor="middle">LinearRegression</text></g><g id="edge4" class="edge"><title>PolynomialExtender-&gt;LinearRegression</title><path fill="none" stroke="#000" d="M102.7207,-144.2022C112.5744,-135.2217 124.6783,-124.1902 135.3887,-114.4289"/><polygon fill="#000" stroke="#000" points="137.856 -116.916 142.889 -107.593 133.141 -111.742 137.856 -116.916"/></g><g id="edge5" class="edge"><title>RBFSampler-&gt;LinearRegression</title><path fill="none" stroke="#000" d="M222.4707,-144.937C212.484,-135.8352 200.02,-124.4756 189.0218,-114.4519"/><polygon fill="#000" stroke="#000" points="191.077 -111.59 181.329 -107.441 186.362 -116.764 191.077 -111.59"/></g><g id="node6" class="node"><title>y</title><ellipse cx="162.193" cy="-18" fill="none" stroke="#000" rx="27" ry="18"/><text x="162.193" y="-14.3" fill="#000" font-family="Times,serif" font-size="14" text-anchor="middle">y</text></g><g id="edge6" class="edge"><title>LinearRegression-&gt;y</title><path fill="none" stroke="#000" d="M162.1926,-71.8314C162.1926,-64.131 162.1926,-54.9743 162.1926,-46.4166"/><polygon fill="#000" stroke="#000" points="165.693 -46.413 162.193 -36.413 158.693 -46.413 165.693 -46.413"/></g></g></svg>