<svg xmlns="http://www.w3.org/2000/svg" xmlns:xlink="http://www.w3.org/1999/xlink" width="167pt" height="335pt" viewBox="0 0 167 335"><g id="graph0" class="graph" transform="scale(1 1) rotate(0) translate(4 331)"><polygon fill="#fff" stroke="transparent" points="-4 4 -4 -331 163 -331 163 4 -4 4"/><g id="clust1" class="cluster"><title>cluster_RandomUnderSampler</title><polygon fill="none" stroke="#000" points="8 -64 8 -139 151 -139 151 -64 8 -64"/><text x="79.5" y="-123.8" font-family="Times,serif" font-size="14" text-anchor="middle">RandomUnderSampler</text></g><g id="node1" class="node"><title>x</title><ellipse cx="79" cy="-309" fill="none" stroke="#000" rx="27" ry="18"/><text x="79" y="-305.3" font-family="Times,serif" font-size="14" text-anchor="middle">x</text></g><g id="node2" class="node"><title>extract_body</title><ellipse cx="79" cy="-237" fill="none" stroke="#000" rx="56.59" ry="18"/><text x="79" y="-233.3" font-family="Times,serif" font-size="14" text-anchor="middle">extract_body</text></g><g id="edge1" class="edge"><title>x-&gt;extract_body</title><path fill="none" stroke="#000" d="M79,-290.7C79,-282.98 79,-273.71 79,-265.11"/><polygon fill="#000" stroke="#000" points="82.5 -265.1 79 -255.1 75.5 -265.1 82.5 -265.1"/></g><g id="node3" class="node"><title>TFIDF</title><ellipse cx="79" cy="-165" fill="none" stroke="#000" rx="35.19" ry="18"/><text x="79" y="-161.3" font-family="Times,serif" font-size="14" text-anchor="middle">TFIDF</text></g><g id="edge2" class="edge"><title>extract_body-&gt;TFIDF</title><path fill="none" stroke="#000" d="M79,-218.7C79,-210.98 79,-201.71 79,-193.11"/><polygon fill="#000" stroke="#000" points="82.5 -193.1 79 -183.1 75.5 -193.1 82.5 -193.1"/></g><g id="node4" class="node"><title>BernoulliNB</title><ellipse cx="79" cy="-90" fill="none" stroke="#000" rx="55.79" ry="18"/><text x="79" y="-86.3" font-family="Times,serif" font-size="14" text-anchor="middle">BernoulliNB</text></g><g id="edge3" class="edge"><title>TFIDF-&gt;BernoulliNB</title><path fill="none" stroke="#000" d="M79,-146.7C79,-138.25 79,-127.87 79,-118.37"/><polygon fill="#000" stroke="#000" points="82.5 -118.18 79 -108.18 75.5 -118.18 82.5 -118.18"/></g><g id="node5" class="node"><title>y</title><ellipse cx="79" cy="-18" fill="none" stroke="#000" rx="27" ry="18"/><text x="79" y="-14.3" font-family="Times,serif" font-size="14" text-anchor="middle">y</text></g><g id="edge4" class="edge"><title>BernoulliNB-&gt;y</title><path fill="none" stroke="#000" d="M79,-71.7C79,-63.98 79,-54.71 79,-46.11"/><polygon fill="#000" stroke="#000" points="82.5 -46.1 79 -36.1 75.5 -46.1 82.5 -46.1"/></g></g></svg>