<svg xmlns="http://www.w3.org/2000/svg" xmlns:xlink="http://www.w3.org/1999/xlink" width="264" height="407pt" viewBox="0 0 198 407"><g id="graph0" class="graph" transform="scale(1 1) rotate(0) translate(4 403)"><polygon fill="#fff" stroke="transparent" points="-4 4 -4 -403 194 -403 194 4 -4 4"/><g id="clust1" class="cluster"><title>cluster_RandomOverSampler</title><polygon fill="none" stroke="#000" points="8 -64 8 -139 182 -139 182 -64 8 -64"/><text x="95" y="-123.8" font-family="Times,serif" font-size="14" text-anchor="middle">RandomOverSampler</text></g><g id="node1" class="node"><title>x</title><ellipse cx="95" cy="-381" fill="none" stroke="#000" rx="27" ry="18"/><text x="95" y="-377.3" font-family="Times,serif" font-size="14" text-anchor="middle">x</text></g><g id="node2" class="node"><title>extract_body</title><ellipse cx="95" cy="-309" fill="none" stroke="#000" rx="56.59" ry="18"/><text x="95" y="-305.3" font-family="Times,serif" font-size="14" text-anchor="middle">extract_body</text></g><g id="edge1" class="edge"><title>x-&gt;extract_body</title><path fill="none" stroke="#000" d="M95,-362.7C95,-354.98 95,-345.71 95,-337.11"/><polygon fill="#000" stroke="#000" points="98.5 -337.1 95 -327.1 91.5 -337.1 98.5 -337.1"/></g><g id="node3" class="node"><title>Embeddings</title><ellipse cx="95" cy="-237" fill="none" stroke="#000" rx="55.49" ry="18"/><text x="95" y="-233.3" font-family="Times,serif" font-size="14" text-anchor="middle">Embeddings</text></g><g id="edge2" class="edge"><title>extract_body-&gt;Embeddings</title><path fill="none" stroke="#000" d="M95,-290.7C95,-282.98 95,-273.71 95,-265.11"/><polygon fill="#000" stroke="#000" points="98.5 -265.1 95 -255.1 91.5 -265.1 98.5 -265.1"/></g><g id="node4" class="node"><title>Normalizer</title><ellipse cx="95" cy="-165" fill="none" stroke="#000" rx="51.19" ry="18"/><text x="95" y="-161.3" font-family="Times,serif" font-size="14" text-anchor="middle">Normalizer</text></g><g id="edge4" class="edge"><title>Embeddings-&gt;Normalizer</title><path fill="none" stroke="#000" d="M95,-218.7C95,-210.98 95,-201.71 95,-193.11"/><polygon fill="#000" stroke="#000" points="98.5 -193.1 95 -183.1 91.5 -193.1 98.5 -193.1"/></g><g id="node5" class="node"><title>LogisticRegression</title><ellipse cx="95" cy="-90" fill="none" stroke="#000" rx="78.79" ry="18"/><text x="95" y="-86.3" font-family="Times,serif" font-size="14" text-anchor="middle">LogisticRegression</text></g><g id="edge3" class="edge"><title>Normalizer-&gt;LogisticRegression</title><path fill="none" stroke="#000" d="M95,-146.7C95,-138.25 95,-127.87 95,-118.37"/><polygon fill="#000" stroke="#000" points="98.5 -118.18 95 -108.18 91.5 -118.18 98.5 -118.18"/></g><g id="node6" class="node"><title>y</title><ellipse cx="95" cy="-18" fill="none" stroke="#000" rx="27" ry="18"/><text x="95" y="-14.3" font-family="Times,serif" font-size="14" text-anchor="middle">y</text></g><g id="edge5" class="edge"><title>LogisticRegression-&gt;y</title><path fill="none" stroke="#000" d="M95,-71.7C95,-63.98 95,-54.71 95,-46.11"/><polygon fill="#000" stroke="#000" points="98.5 -46.1 95 -36.1 91.5 -46.1 98.5 -46.1"/></g></g></svg>