<svg xmlns="http://www.w3.org/2000/svg" xmlns:xlink="http://www.w3.org/1999/xlink" width="511pt" height="404pt" viewBox="0 0 510.84 404"><g id="graph0" class="graph" transform="scale(1 1) rotate(0) translate(4 400)"><title>%3</title><polygon fill="#fff" stroke="transparent" points="-4 4 -4 -400 506.836 -400 506.836 4 -4 4"/><g id="node1" class="node"><title>input</title><ellipse cx="325.093" cy="-378" fill="none" stroke="#000" rx="30.595" ry="18"/><text x="325.093" y="-374.3" fill="#000" font-family="Times,serif" font-size="14" text-anchor="middle">input</text></g><g id="node2" class="node"><title>Select([&apos;text&apos;])</title><ellipse cx="236.093" cy="-306" fill="none" stroke="#000" rx="79.087" ry="18"/><text x="236.093" y="-302.3" fill="#000" font-family="Times,serif" font-size="14" text-anchor="middle">Select([&apos;text&apos;])</text></g><g id="edge1" class="edge"><title>input-&gt;Select([&apos;text&apos;])</title><path fill="none" stroke="#000" d="M307.0829,-363.4297C295.1093,-353.7432 279.1127,-340.8021 265.3358,-329.6568"/><polygon fill="#000" stroke="#000" points="267.504 -326.909 257.528 -323.34 263.101 -332.351 267.504 -326.909"/></g><g id="node5" class="node"><title>Select([&apos;b&apos;, &apos;a&apos;])</title><ellipse cx="415.093" cy="-306" fill="none" stroke="#000" rx="81.786" ry="18"/><text x="415.093" y="-302.3" fill="#000" font-family="Times,serif" font-size="14" text-anchor="middle">Select([&apos;b&apos;, &apos;a&apos;])</text></g><g id="edge4" class="edge"><title>input-&gt;Select([&apos;b&apos;, &apos;a&apos;])</title><path fill="none" stroke="#000" d="M343.3063,-363.4297C355.3286,-353.8119 371.3616,-340.9855 385.2257,-329.8942"/><polygon fill="#000" stroke="#000" points="387.469 -332.582 393.091 -323.602 383.096 -327.116 387.469 -332.582"/></g><g id="node3" class="node"><title>TFIDFVectorizer</title><ellipse cx="74.093" cy="-234" fill="none" stroke="#000" rx="74.187" ry="18"/><text x="74.093" y="-230.3" fill="#000" font-family="Times,serif" font-size="14" text-anchor="middle">TFIDFVectorizer</text></g><g id="edge2" class="edge"><title>Select([&apos;text&apos;])-&gt;TFIDFVectorizer</title><path fill="none" stroke="#000" d="M199.7375,-289.8418C175.9143,-279.2537 144.5983,-265.3355 119.1908,-254.0433"/><polygon fill="#000" stroke="#000" points="120.33 -250.72 109.77 -249.856 117.487 -257.116 120.33 -250.72"/></g><g id="node4" class="node"><title>CountVectorizer</title><ellipse cx="238.093" cy="-234" fill="none" stroke="#000" rx="71.487" ry="18"/><text x="238.093" y="-230.3" fill="#000" font-family="Times,serif" font-size="14" text-anchor="middle">CountVectorizer</text></g><g id="edge3" class="edge"><title>Select([&apos;text&apos;])-&gt;CountVectorizer</title><path fill="none" stroke="#000" d="M236.5981,-287.8314C236.812,-280.131 237.0664,-270.9743 237.3041,-262.4166"/><polygon fill="#000" stroke="#000" points="240.803 -262.507 237.582 -252.413 233.805 -262.312 240.803 -262.507"/></g><g id="node7" class="node"><title>StandardScaler</title><ellipse cx="238.093" cy="-162" fill="none" stroke="#000" rx="66.089" ry="18"/><text x="238.093" y="-158.3" fill="#000" font-family="Times,serif" font-size="14" text-anchor="middle">StandardScaler</text></g><g id="edge7" class="edge"><title>TFIDFVectorizer-&gt;StandardScaler</title><path fill="none" stroke="#000" d="M110.0839,-218.1993C134.689,-207.3971 167.4657,-193.0073 193.6926,-181.493"/><polygon fill="#000" stroke="#000" points="195.282 -184.618 203.032 -177.393 192.468 -178.208 195.282 -184.618"/></g><g id="edge8" class="edge"><title>CountVectorizer-&gt;StandardScaler</title><path fill="none" stroke="#000" d="M238.0934,-215.8314C238.0934,-208.131 238.0934,-198.9743 238.0934,-190.4166"/><polygon fill="#000" stroke="#000" points="241.594 -190.413 238.093 -180.413 234.594 -190.413 241.594 -190.413"/></g><g id="node6" class="node"><title>PolynomialExtender</title><ellipse cx="415.093" cy="-234" fill="none" stroke="#000" rx="87.985" ry="18"/><text x="415.093" y="-230.3" fill="#000" font-family="Times,serif" font-size="14" text-anchor="middle">PolynomialExtender</text></g><g id="edge5" class="edge"><title>Select([&apos;b&apos;, &apos;a&apos;])-&gt;PolynomialExtender</title><path fill="none" stroke="#000" d="M415.0934,-287.8314C415.0934,-280.131 415.0934,-270.9743 415.0934,-262.4166"/><polygon fill="#000" stroke="#000" points="418.594 -262.413 415.093 -252.413 411.594 -262.413 418.594 -262.413"/></g><g id="edge6" class="edge"><title>PolynomialExtender-&gt;StandardScaler</title><path fill="none" stroke="#000" d="M375.3712,-217.8418C348.3571,-206.853 312.5252,-192.2773 284.2434,-180.7729"/><polygon fill="#000" stroke="#000" points="285.547 -177.525 274.965 -176.999 282.909 -184.009 285.547 -177.525"/></g><g id="node8" class="node"><title>LinearRegression</title><ellipse cx="238.093" cy="-90" fill="none" stroke="#000" rx="75.287" ry="18"/><text x="238.093" y="-86.3" fill="#000" font-family="Times,serif" font-size="14" text-anchor="middle">LinearRegression</text></g><g id="edge9" class="edge"><title>StandardScaler-&gt;LinearRegression</title><path fill="none" stroke="#000" d="M238.0934,-143.8314C238.0934,-136.131 238.0934,-126.9743 238.0934,-118.4166"/><polygon fill="#000" stroke="#000" points="241.594 -118.413 238.093 -108.413 234.594 -118.413 241.594 -118.413"/></g><g id="node9" class="node"><title>output</title><ellipse cx="238.093" cy="-18" fill="none" stroke="#000" rx="35.194" ry="18"/><text x="238.093" y="-14.3" fill="#000" font-family="Times,serif" font-size="14" text-anchor="middle">output</text></g><g id="edge10" class="edge"><title>LinearRegression-&gt;output</title><path fill="none" stroke="#000" d="M238.0934,-71.8314C238.0934,-64.131 238.0934,-54.9743 238.0934,-46.4166"/><polygon fill="#000" stroke="#000" points="241.594 -46.413 238.093 -36.413 234.594 -46.413 241.594 -46.413"/></g></g></svg>